<?xml version="1.0" encoding="utf-8"?>
<!-- Generator: Adobe Illustrator 23.0.4, SVG Export Plug-In . SVG Version: 6.00 Build 0)  -->
<svg version="1.1" id="Layer_1" xmlns="http://www.w3.org/2000/svg" xmlns:xlink="http://www.w3.org/1999/xlink" x="0px" y="0px"
	 viewBox="0 0 64 67.9" style="enable-background:new 0 0 64 67.9;" xml:space="preserve">
<style type="text/css">
	.st0{fill:#020203;}
	.st1{fill:#99FF33;}
	.st2{fill:#FF3399;}
	.st3{fill:#9933FF;}
</style>
<path class="st0" d="M9.5,23.9c-0.2,0-0.5,0.1-0.7,0.3C8,24,7.4,23.9,6.8,24.4c-0.9-0.1-1.2,0.1-1.4,0.4c-0.2,0-1.5-0.2-2.1,0.7
	c-1.5-0.2-2,0.9-1.4,1.8c-0.3,0.5-0.6,0.9,0.1,1.8c-0.2,0.5-0.1,1,0.5,1.7c-0.2,0.7,0.1,1.2,0.7,1.6C3.1,33.3,4,33.8,4.3,34
	c0.1,0.5,0.3,1.1,1.5,1.4c0.2,0.8,0.9,1,1.5,1.1c-2.2,1.2-4,2.9-4,6.9L3,43.9C0.5,45.4-1.7,50.1,1.8,54c0.2,1.2,0.6,2.1,0.9,3
	C3.2,61,6.6,62.8,7.4,63c1.3,1,2.6,1.9,4.5,2.5c1.7,1.8,3.6,2.4,5.5,2.4c0,0,0.1,0,0.1,0c1.9,0,3.8-0.7,5.5-2.4
	c1.8-0.6,3.2-1.5,4.5-2.5c0.9-0.2,4.2-2,4.7-5.9c0.3-1,0.7-1.8,0.9-3c3.5-3.9,1.3-8.6-1.2-10.1l-0.3-0.6c0-4-1.8-5.6-4-6.9
	c0.7-0.2,1.3-0.3,1.5-1.1c1.1-0.3,1.4-0.8,1.5-1.4c0.3-0.2,1.3-0.7,1.2-1.7c0.5-0.4,0.9-0.9,0.7-1.6c0.6-0.6,0.7-1.2,0.5-1.7
	c0.7-0.9,0.4-1.3,0.1-1.8c0.5-1,0.1-2-1.4-1.8c-0.6-0.9-1.9-0.7-2.1-0.7c-0.2-0.3-0.5-0.5-1.4-0.4c-0.6-0.5-1.2-0.4-1.9-0.2
	c-0.8-0.6-1.3-0.1-1.9,0.1c-1-0.3-1.2,0.1-1.7,0.3c-1.1-0.2-1.4,0.3-1.9,0.8l0,0c-0.2-0.1-0.4-0.1-0.6,0l0,0
	c-1.6,0.9-2.4,2.8-2.7,3.8c-0.3-1-1.1-2.9-2.7-3.8l0,0c-0.2-0.1-0.4-0.1-0.6,0l0,0c-0.5-0.5-0.8-1-1.9-0.8c-0.5-0.2-0.7-0.6-1.7-0.3
	c-0.4-0.1-0.6-0.4-1.1-0.4L9.5,23.9z"/>
<g>
	<path class="st1" d="M6.3,28c4.2,2.2,6.7,3.9,8.1,5.4c-0.7,2.7-4.3,2.9-5.6,2.8C9,36,9.2,35.9,9.3,35.7c-0.3-0.2-1.5,0-2.3-0.5
		c0.3-0.1,0.5-0.1,0.6-0.4C6.8,34.6,6,34.4,5.5,34C5.8,34,6,34,6.4,33.8c-0.7-0.4-1.4-0.7-2-1.2c0.4,0,0.7,0,0.9-0.1
		C4.6,32,4,31.6,3.6,31.1c0.5,0.1,0.7,0,0.8-0.1c-0.5-0.5-1.1-0.9-1.4-1.5c0.4,0.1,0.7,0.2,1,0c-0.2-0.4-0.9-0.6-1.3-1.4
		c0.4,0,0.8,0.1,0.9,0c-0.2-0.7-0.5-1.1-0.8-1.6c0.8,0,2.1,0,2.1-0.1L4.4,26c0.8-0.2,1.7,0,2.3,0.2c0.3-0.2,0-0.5-0.3-0.8
		c0.7,0.1,1.3,0.2,1.9,0.5c0.3-0.3-0.2-0.5-0.4-0.8c1.1,0.2,1.5,0.5,2,0.8c0.3-0.3,0-0.6-0.2-0.8c0.8,0.3,1.2,0.7,1.7,1.1
		c0.1-0.2,0.4-0.3,0.1-0.8c0.6,0.3,1,0.7,1.3,1.1c0.4-0.2,0.2-0.5,0.2-0.8c0.6,0.5,1,1,1.4,1.5c0.1-0.1,0.2-0.3,0.2-0.7
		c1.4,1.4,3.4,4.8,0.5,6.2C12.6,30.6,9.6,29.1,6.3,28L6.3,28z"/>
	<path class="st1" d="M28.8,28c-4.2,2.2-6.7,3.9-8.1,5.4c0.7,2.7,4.3,2.9,5.6,2.8c-0.3-0.1-0.5-0.3-0.6-0.5c0.3-0.2,1.5,0,2.3-0.5
		c-0.3-0.1-0.5-0.1-0.6-0.4c0.8-0.2,1.6-0.5,2.1-0.9c-0.3,0-0.5,0.1-0.9-0.2c0.7-0.4,1.4-0.7,2-1.2c-0.4,0-0.7,0-0.9-0.1
		c0.6-0.4,1.2-0.8,1.6-1.3c-0.5,0.1-0.7,0-0.8-0.1c0.5-0.5,1.1-0.9,1.4-1.5c-0.4,0.1-0.7,0.2-1,0c0.2-0.4,0.9-0.6,1.3-1.4
		c-0.4,0-0.8,0.1-0.9,0c0.2-0.7,0.5-1.1,0.8-1.6c-0.8,0-2.1,0-2.1-0.1l0.5-0.5c-0.8-0.2-1.7,0-2.3,0.2c-0.3-0.2,0-0.5,0.3-0.8
		c-0.7,0.1-1.3,0.2-1.9,0.5c-0.3-0.3,0.2-0.5,0.4-0.8c-1.1,0.2-1.5,0.5-2,0.8c-0.3-0.3,0-0.6,0.2-0.8c-0.8,0.3-1.2,0.7-1.7,1.1
		c-0.1-0.2-0.4-0.3-0.1-0.8c-0.6,0.3-1,0.7-1.3,1.1c-0.4-0.2-0.2-0.5-0.2-0.8c-0.6,0.5-1,1-1.4,1.5c-0.1-0.1-0.2-0.3-0.2-0.7
		c-1.4,1.4-3.4,4.8-0.5,6.2C22.5,30.6,25.5,29.1,28.8,28L28.8,28z"/>
</g>
<g>
	<path class="st2" d="M22.7,55.8c0,2.6-2.2,4.6-5.1,4.6c-2.8,0-5.1-2-5.1-4.6c0,0,0,0,0,0c0-2.6,2.2-4.6,5.1-4.6
		S22.7,53.2,22.7,55.8C22.7,55.8,22.7,55.8,22.7,55.8z"/>
	<path class="st2" d="M14.7,42.6c2.1,1.4,2.5,4.4,0.8,6.9c-1.6,2.4-4.7,3.3-6.8,2l0,0C6.7,50.1,6.3,47,8,44.6
		C9.6,42.1,12.6,41.3,14.7,42.6L14.7,42.6z"/>
	<path class="st2" d="M20.4,42.4c-2.1,1.4-2.5,4.4-0.8,6.9c1.6,2.4,4.7,3.3,6.8,2l0,0c2.1-1.4,2.5-4.4,0.8-6.9
		C25.6,41.9,22.5,41,20.4,42.4L20.4,42.4z"/>
	<path class="st2" d="M4.4,44.9c2.3-0.6,0.8,9.3-1.1,8.5C1.2,51.7,0.6,47,4.4,44.9z"/>
	<path class="st2" d="M30.6,44.7c-2.3-0.6-0.8,9.3,1.1,8.5C33.7,51.6,34.4,46.9,30.6,44.7L30.6,44.7z"/>
	<path class="st2" d="M23,37.4c3.9-0.7,7.2,1.6,7.1,5.8C29.9,44.8,21.6,37.6,23,37.4z"/>
	<path class="st2" d="M12.2,37.3c-3.9-0.7-7.2,1.6-7.1,5.8C5.2,44.7,13.6,37.5,12.2,37.3z"/>
	<path class="st2" d="M17.6,36.3C15.2,36.2,13,38,13,39c0,1.3,1.8,2.5,4.6,2.6c2.8,0,4.6-1,4.6-2.3C22.2,37.8,19.6,36.3,17.6,36.3
		L17.6,36.3z"/>
	<path class="st2" d="M17.7,61.9c2-0.1,4.8,0.6,4.8,1.6c0,0.9-2.5,3.1-4.9,3c-2.5,0.1-5-2-5-2.8C12.6,62.7,15.7,61.8,17.7,61.9
		L17.7,61.9z"/>
	<path class="st2" d="M10.2,56.1c1.5,1.7,2.1,4.8,0.9,5.7c-1.1,0.7-3.9,0.4-5.9-2.4C3.8,57,4,54.6,4.9,53.9
		C6.4,53.1,8.5,54.2,10.2,56.1L10.2,56.1z"/>
	<path class="st2" d="M24.8,55.6c-1.6,1.8-2.4,5.1-1.3,6.2c1.1,0.8,4,0.7,6.2-2.3c1.6-2,1.1-5.3,0.1-6.2
		C28.5,52.2,26.6,53.6,24.8,55.6L24.8,55.6z"/>
</g>
<path class="st3" d="M36,6.9c-0.6,0-1,0.4-1,1c0,0.4,0.2,0.7,0.5,0.9c9,2.5,16.3,9,19.9,17.6c0.2,0.4,0.5,0.6,0.9,0.6
	c0.1,0,0.3,0,0.4-0.1c0.5-0.2,0.8-0.8,0.5-1.3l0,0C53.4,16.4,45.6,9.6,36,6.9z"/>
<path class="st3" d="M63.8,22.6C59.3,11.4,49.8,3.1,38.2,0c-0.5-0.1-1.1,0.2-1.2,0.7c-0.1,0.5,0.2,1.1,0.7,1.2
	c11,2.9,20,10.8,24.3,21.4c0.2,0.5,0.8,0.8,1.3,0.6S64.1,23.1,63.8,22.6L63.8,22.6z"/>
<path class="st3" d="M33.5,15c-0.5-0.2-1.1,0.1-1.3,0.7c-0.2,0.5,0.1,1.1,0.7,1.3c6.5,2.1,11.8,6.8,14.6,13c0.2,0.5,0.8,0.7,1.3,0.5
	s0.7-0.8,0.5-1.3l0,0C46.3,22.4,40.5,17.3,33.5,15z"/>
</svg>
