<?xml version="1.0" encoding="utf-8"?>
<!-- Generator: Adobe Illustrator 23.0.4, SVG Export Plug-In . SVG Version: 6.00 Build 0)  -->
<svg version="1.1" id="Layer_1" xmlns="http://www.w3.org/2000/svg" xmlns:xlink="http://www.w3.org/1999/xlink" x="0px" y="0px"
	 viewBox="0 0 58.3 80.8" style="enable-background:new 0 0 58.3 80.8;" xml:space="preserve">
<style type="text/css">
	.st0{fill:#9933FF;}
	.st1{fill:#33CCFF;}
	.st2{fill:#CC6666;}
</style>
<title>Unbenannt-2</title>
<path class="st0" d="M30.4,6.9c-0.6,0-1,0.4-1,1c0,0.4,0.2,0.7,0.5,0.9c9,2.5,16.3,9,19.9,17.6c0.2,0.5,0.8,0.8,1.3,0.5
	c0.5-0.2,0.8-0.8,0.5-1.3C47.8,16.4,40,9.6,30.4,6.9z"/>
<path class="st0" d="M58.2,22.6C53.7,11.4,44.2,3.1,32.6,0c-0.5-0.1-1.1,0.2-1.2,0.7s0.2,1.1,0.7,1.2c11,2.9,20,10.8,24.3,21.4
	c0.2,0.5,0.8,0.8,1.3,0.6C58.2,23.7,58.4,23.1,58.2,22.6L58.2,22.6z"/>
<path class="st0" d="M27.9,15c-0.5-0.2-1.1,0.1-1.3,0.7c-0.2,0.5,0.1,1.1,0.7,1.3c6.5,2.1,11.8,6.8,14.6,13c0.2,0.5,0.8,0.7,1.3,0.5
	s0.7-0.8,0.5-1.3l0,0C40.7,22.4,34.9,17.3,27.9,15z"/>
<path d="M19,60.6v-4.8h-3c-0.6,0-1-0.4-1-1s0.4-1,1-1h3v-3h-3c-0.6,0-1-0.4-1-1s0.4-1,1-1h3v-3h-3c-0.6,0-1-0.4-1-1s0.4-1,1-1h3v-3
	h-3c-0.6,0-1-0.4-1-1s0.4-1,1-1h3l0-4.2c0-3.5-2.3-6.7-5.6-7.5C8.5,25.8,4,29.6,4,34.3v26.3c-5.2,4.5-5.5,12.8,0.1,17.5
	c4.3,3.6,10.7,3.6,14.9,0c4.8-4.2,5.4-11.4,1.2-16.2C19.8,61.4,19.4,61,19,60.6z M11.5,75.8c-3.6,0-6.5-2.9-6.5-6.5c0-2.6,1.6-5,4-6
	v-29c0-1.4,1.1-2.5,2.5-2.5s2.5,1.1,2.5,2.5v29c3.3,1.4,4.9,5.2,3.5,8.5C16.5,74.2,14.1,75.8,11.5,75.8z"/>
<path class="st1" d="M31.9,35.3c-0.1,0-0.3,0.1-0.3,0.2c-0.1,0.1-3,3-3,5.5c-0.1,1.9,1.3,3.4,3.2,3.5c1.9,0.1,3.4-1.3,3.5-3.2
	c0-0.1,0-0.2,0-0.4c0-2.5-2.9-5.4-3-5.5C32.1,35.4,32,35.3,31.9,35.3z"/>
<path class="st1" d="M39.9,46.3c-0.1,0-0.3,0.1-0.3,0.2c-0.1,0.1-3,3-3,5.5c-0.1,1.9,1.3,3.4,3.2,3.5s3.4-1.3,3.5-3.2
	c0-0.1,0-0.2,0-0.4c0-2.5-2.9-5.4-3-5.5C40.1,46.4,40,46.3,39.9,46.3z"/>
<path class="st1" d="M30.1,51.4c-0.2-0.2-0.5-0.2-0.7,0l0,0c-0.1,0.1-2.9,3.1-2.9,5.6c0,1.8,1.5,3.3,3.3,3.3H30
	c1.9,0,3.3-1.6,3.3-3.4l0,0C33.2,54.4,30.2,51.6,30.1,51.4z"/>
<ellipse class="st2" cx="11.5" cy="69.4" rx="5.9" ry="5.5"/>
<rect x="9.5" y="46.3" class="st2" width="3.9" height="19.9"/>
</svg>
